{"title":"Dawn.Of.The.Planet.of.The.Apes.2014.720p.TS.XVID-VAiN","uid":10622421,"size":1965487635,"categoryP":"video","categoryS":"movies","magnet":"?xt=urn:btih:9ccf2417d04f69bce220e3be2b848d50dbfcfe42&amp;dn=Dawn.Of.The.Planet.of.The.Apes.2014.720p.TS.XVID-VAiN&amp;tr=udp%3A%2F%2Ftracker.openbittorrent.com%3A80&amp;tr=udp%3A%2F%2Fopen.demonii.com%3A1337&amp;tr=udp%3A%2F%2Ftracker.coppersurfer.tk%3A6969&amp;tr=udp%3A%2F%2Fexodus.desync.com%3A6969","seeders":9,"leechers":0,"uploader":"Xetron","files":4,"time":1406181278,"description":"\n\nDawn.Of.The.Planet.of.The.Apes.2014.720p.TS.XVID-VAiN\n\niMDB........: http://www.imdb.com/title/tt2103281/\n\nPLOT........: In the wake of a disaster that changed the world, the growing and genetically evolving apes find themselves at a critical point with the human race.\n\n\nT E C H N i C A L . i N F O . . .  \n    \nGeneral\nFormat                                   : AVI\nFormat/Info                              : Audio Video Interleave\nFile size                                : 1.80 GiB\nDuration                                 : 2h 1mn\nOverall bit rate                         : 2 127 Kbps\nWriting application                      : VirtualDubMod 1.5.10.2 (build 2540/release)\nWriting library                          : VirtualDubMod build 2540/release\n\nVideo\nID                                       : 0\nFormat                                   : MPEG-4 Visual\nFormat profile                           : Advanced Simple@L5\nFormat settings, BVOP                    : 1\nFormat settings, QPel                    : No\nFormat settings, GMC                     : No warppoints\nFormat settings, Matrix                  : Default (MPEG)\nCodec ID                                 : XVID\nCodec ID/Hint                            : XviD\nDuration                                 : 2h 1mn\nBit rate                                 : 1 990 Kbps\nWidth                                    : 1 280 pixels\nHeight                                   : 520 pixels\nDisplay aspect ratio                     : 2.462\nFrame rate                               : 24.000 fps\nColor space                              : YUV\nChroma subsampling                       : 4:2:0\nBit depth                                : 8 bits\nScan type                                : Progressive\nCompression mode                         : Lossy\nBits/(Pixel*Frame)                       : 0.125\nStream size                              : 1.69 GiB (94%)\nWriting library                          : XviD 1.2.1 (UTC 2008-12-04)\n\nAudio\nID                                       : 1\nFormat                                   : MPEG Audio\nFormat version                           : Version 1\nFormat profile                           : Layer 3\nMode                                     : Joint stereo\nMode extension                           : MS Stereo\nCodec ID                                 : 55\nCodec ID/Hint                            : MP3\nDuration                                 : 2h 1mn\nBit rate mode                            : Constant\nBit rate                                 : 128 Kbps\nChannel(s)                               : 2 channels\nSampling rate                            : 44.1 KHz\nCompression mode                         : Lossy\nStream size                              : 111 MiB (6%)\nAlignment                                : Split accross interleaves\nInterleave, duration                     : 42 ms (1.00 video frame)\nInterleave, preload duration             : 500 ms\nWriting library                          : LAME3.99r\nEncoding settings                        : -m j -V 4 -q 2 -lowpass 17 -b 128\n\n\n\n\n\n\n\n\nE N C O D E R S . N O T E S . . .       \n\nSOURCE......: HDCAM a friend audio: echo :bow:\nSAMPLE......: Yes\nADDED NOTE..:  well passed some nice sexy HDCAM but fook... it's in 3D :( cropped, chopped, filtered... video is a but dark here and there, slight flicker, gets blury at times. So here we are... enjoy or don't. then just muxed already synced line that's about after a few bits and tweaks and .....\n\n\n\n\nS C R E E N . S H O T S . . .\n\n &lt;a href=&quot;\nhttp://i.imgur.com/GE6IjZ7.png&quot; rel=&quot;nofollow&quot; target=&quot;_NEW&quot;&gt;\nhttp://i.imgur.com/GE6IjZ7.png&lt;/a&gt;\n &lt;a href=&quot;\nhttp://i.imgur.com/VTCO0oZ.png&quot; rel=&quot;nofollow&quot; target=&quot;_NEW&quot;&gt;\nhttp://i.imgur.com/VTCO0oZ.png&lt;/a&gt;\n &lt;a href=&quot;\nhttp://i.imgur.com/dyv7e0Y.png&quot; rel=&quot;nofollow&quot; target=&quot;_NEW&quot;&gt;\nhttp://i.imgur.com/dyv7e0Y.png&lt;/a&gt;\n &lt;a href=&quot;\nhttp://i.imgur.com/47e3chg.png&quot; rel=&quot;nofollow&quot; target=&quot;_NEW&quot;&gt;\nhttp://i.imgur.com/47e3chg.png&lt;/a&gt;\n &lt;a href=&quot;\nhttp://i.imgur.com/1X63Vr6.png&quot; rel=&quot;nofollow&quot; target=&quot;_NEW&quot;&gt;\nhttp://i.imgur.com/1X63Vr6.png&lt;/a&gt;\n &lt;a href=&quot;\nhttp://i.imgur.com/wRuGpUS.png&quot; rel=&quot;nofollow&quot; target=&quot;_NEW&quot;&gt;\nhttp://i.imgur.com/wRuGpUS.png&lt;/a&gt;\n &lt;a href=&quot;\nhttp://i.imgur.com/55fxg3Z.png&quot; rel=&quot;nofollow&quot; target=&quot;_NEW&quot;&gt;\nhttp://i.imgur.com/55fxg3Z.png&lt;/a&gt;\n\n\n\n\n","torrent":{"xt":"urn:btih:9ccf2417d04f69bce220e3be2b848d50dbfcfe42","amp;dn":"Dawn.Of.The.Planet.of.The.Apes.2014.720p.TS.XVID-VAiN","amp;tr":["udp%3A%2F%2Ftracker.openbittorrent.com%3A80","udp%3A%2F%2Fopen.demonii.com%3A1337","udp%3A%2F%2Ftracker.coppersurfer.tk%3A6969","udp%3A%2F%2Fexodus.desync.com%3A6969"],"infoHash":"9ccf2417d04f69bce220e3be2b848d50dbfcfe42","infoHashBuffer":{"type":"Buffer","data":[156,207,36,23,208,79,105,188,226,32,227,190,43,132,141,80,219,252,254,66]},"announce":[],"urlList":[]}}